<?xml version="1.0" encoding="UTF-8"?><svg id="Livello_2" xmlns="http://www.w3.org/2000/svg" viewBox="0 0 100 100"><defs><style>.cls-1{fill:#fff;}</style></defs><g id="Livello_1-2"><rect class="cls-1" width="100" height="100"/><path d="M15.7,61.9h-4.92v-27.81h7.54l5.96,17.53c.52,1.53.85,3.06,1.21,5,.4-1.93.73-3.47,1.21-5l6-17.53h7.54v27.81h-4.92l.04-22.57-7.5,22.57h-4.71l-7.5-22.57.04,22.57Z"/><path d="M60.51,42.6c-.48-3.67-2.82-4.88-6.37-4.88-3.22,0-5.76,1.09-5.76,3.51,0,6.33,17.65,1.05,17.65,12.53,0,5.84-5.08,8.54-11.32,8.54-6.69,0-11.57-3.06-11.85-9.55l4.67-.36c.4,3.95,2.9,5.88,7.13,5.88,3.83,0,6.65-1.13,6.65-4.15,0-7.09-17.65-1.57-17.65-12.57,0-5.28,4.76-7.86,10.52-7.86s10.68,2.34,11,8.54l-4.67.36Z"/><path d="M91.22,53.96c0,5.4-4.11,7.94-9.63,7.94h-13.26v-27.81h12.94c5.44,0,8.78,2.34,8.78,7.09,0,3.1-2.01,5.24-4.59,6.13,3.39.56,5.76,2.86,5.76,6.65ZM73.24,38.33v6.93h7.05c2.74,0,4.63-.73,4.63-3.47s-1.65-3.47-4.55-3.47h-7.13ZM86.1,53.56c0-3.26-2.34-4.07-5.52-4.07h-7.33v8.18h7.86c3.02,0,5-1.09,5-4.11Z"/></g></svg>